HIERARCHY
ROOT Hips
{
	OFFSET 0.00000 0.00000 0.00000
	CHANNELS 6 Xposition Yposition Zposition Zrotation Yrotation Xrotation 
	JOINT LHipJoint
	{
		OFFSET 0 0 0
		CHANNELS 3 Zrotation Yrotation Xrotation
		JOINT LeftHip
		{
			OFFSET 1.09156 -1.61406 0.76500
			CHANNELS 3 Zrotation Yrotation Xrotation
			JOINT LeftKnee
			{
				OFFSET 2.33750 -6.42225 0.00000
				CHANNELS 3 Zrotation Yrotation Xrotation
				JOINT LeftAnkle
				{
					OFFSET 2.49247 -6.84800 0.00000
					CHANNELS 3 Zrotation Yrotation Xrotation
					JOINT LeftToe
					{
						OFFSET 0.15312 -0.42069 1.45461
						CHANNELS 3 Zrotation Yrotation Xrotation
						End Site
						{
							OFFSET 0.00000 -0.00000 0.77046
						}
					}
				}
			}
		}
	}
	JOINT RHipJoint
	{
		OFFSET 0 0 0
		CHANNELS 3 Zrotation Yrotation Xrotation
		JOINT RightHip
		{
			OFFSET -0.99883 -1.61406 0.76500
			CHANNELS 3 Zrotation Yrotation Xrotation
			JOINT RightKnee
			{
				OFFSET -2.36877 -6.50815 0.00000
				CHANNELS 3 Zrotation Yrotation Xrotation
				JOINT RightAnkle
				{
					OFFSET -2.53452 -6.96353 0.00000
					CHANNELS 3 Zrotation Yrotation Xrotation
					JOINT RightToe
					{
						OFFSET -0.13156 -0.36145 1.63237
						CHANNELS 3 Zrotation Yrotation Xrotation
						End Site
						{
							OFFSET -0.00000 -0.00000 0.84979
						}
					}
				}
			}
		}
	}
	JOINT lowerback
	{
		OFFSET 0 0 0
		CHANNELS 3 Zrotation Yrotation Xrotation
		JOINT Chest
		{
			OFFSET -0.02431 1.98242 -0.13616
			CHANNELS 3 Zrotation Yrotation Xrotation
			JOINT Chest2
			{
				OFFSET 0.03629 1.98974 -0.02954
				CHANNELS 3 Zrotation Yrotation Xrotation
				JOINT lowerneck
				{
					OFFSET 0 0 0
					CHANNELS 3 Zrotation Yrotation Xrotation
					JOINT Neck
					{
						OFFSET 0.09349 1.40783 0.22333
						CHANNELS 3 Zrotation Yrotation Xrotation
						JOINT Head
						{
							OFFSET -0.04273 1.44500 -0.06495
							CHANNELS 3 Zrotation Yrotation Xrotation
							End Site
							{
								OFFSET -0.02251 1.44600 -0.04544
							}
						}
					}
				}
				JOINT LeftCollar
				{
					OFFSET 0 0 0
					CHANNELS 3 Zrotation Yrotation Xrotation
					JOINT LeftShoulder
					{
						OFFSET 3.49137 0.85126 -0.29740
CHANNELS 3 Zrotation Xrotation Yrotation
						JOINT LeftElbow
						{
OFFSET 0 -5.060350 0.000000
CHANNELS 3 Zrotation Xrotation Yrotation
							JOINT LeftWrist
							{
OFFSET 0 -3.147800 0.000000
CHANNELS 3 Zrotation Xrotation Yrotation
								JOINT lhand
								{
									OFFSET 0 0 0
CHANNELS 3 Zrotation Xrotation Yrotation
									JOINT LFingers
									{
OFFSET 0 -0.606750 0.000000
CHANNELS 3 Zrotation Xrotation Yrotation
										End Site
										{
OFFSET 0 -0.489180 0.000000
										}
									}
								}
								JOINT LThumb
								{
OFFSET 0 0.000000 0.000000
CHANNELS 3 Zrotation Xrotation Yrotation
									End Site
									{
OFFSET 0 -0.496640 0.496640
									}
								}
							}
						}
					}
				}
				JOINT RightCollar
				{
					OFFSET 0 0 0
					CHANNELS 3 Zrotation Yrotation Xrotation
					JOINT RightShoulder
					{
						OFFSET -3.28101 0.69707 0.00747
CHANNELS 3 Zrotation Xrotation Yrotation
						JOINT RightElbow
						{
OFFSET 0 -5.122730 -0.000000
CHANNELS 3 Zrotation Xrotation Yrotation
							JOINT RightWrist
							{
OFFSET 0 -3.422000 0.000000
CHANNELS 3 Zrotation Xrotation Yrotation
								JOINT rhand
								{
									OFFSET 0 0 0
CHANNELS 3 Zrotation Xrotation Yrotation
									JOINT RFingers
									{
OFFSET 0 -0.704600 0.000000
CHANNELS 3 Zrotation Xrotation Yrotation
										End Site
										{
OFFSET 0 -0.568070 0.000000
										}
									}
								}
								JOINT RThumb
								{
OFFSET 0 0.000000 0.000000
CHANNELS 3 Zrotation Xrotation Yrotation
									End Site
									{
OFFSET 0 -0.576740 0.576740
									}
								}
							}
						}
					}
				}
			}
		}
	}
}
MOTION
Frames: 8
Frame Time: 0.008333333333333333
-20.004312 15.819746 -1.057003 -532.083414 -37.516267 537.905309 0.000000 0.000000 0.000000 -8.687578 -2.395006 -23.712403 4.725910 13.068332 39.624823 0.716272 -11.364813 -15.970366 3.648023 11.676685 34.597676 0.000000 0.000000 0.000000 19.097474 11.746278 9.247826 -1.986307 -8.836534 25.285910 0.031298 14.556405 -9.858405 -0.889238 -6.009320 16.811901 -1.728694 -2.188494 -0.656466 -0.496324 -2.901257 0.490293 0.415218 -1.461527 0.929532 0.217770 -2.499748 -1.605626 0.977204 -4.138173 -15.344205 0.472452 -2.446738 -4.790261 0.000000 0.000000 0.000000 7.659882 -8.827258 -7.659079 11.359998 -18.837894 1.890526 15.139612 15.840024 -45.776373 0.000000 0.000000 0.000000 -7.125000 0.000000 0.000000 -41.092873 73.284753 28.771905 0.000000 0.000000 0.000000 -0.384803 3.408111 27.525325 -19.783454 -30.380463 -5.421433 -23.873242 -11.987355 -33.486034 0.000000 0.000000 0.000000 7.125000 0.000000 0.000000 4.688089 -5.795997 5.154095
-20.113917 15.816744 -1.046863 -533.627260 -36.855747 538.995708 0.000000 0.000000 0.000000 -10.478627 -2.132314 -23.285323 4.671271 13.003776 39.382444 0.825591 -10.692212 -16.777754 3.404766 11.322630 33.376498 0.000000 0.000000 0.000000 17.272883 11.640446 8.209691 -2.250388 -9.367483 26.953169 0.082155 15.041218 -9.627619 -0.882307 -5.987923 16.749495 -2.803501 -2.113096 -0.925173 -0.840459 -2.785004 0.494235 0.652807 -1.414426 1.116334 0.197963 -2.398503 -1.683710 1.114420 -3.998738 -15.414414 0.517452 -2.389890 -4.797795 0.000000 0.000000 0.000000 7.729892 -9.039020 -7.482125 11.334485 -18.799196 1.882330 15.564634 16.325298 -45.889961 0.000000 0.000000 0.000000 -7.125000 0.000000 0.000000 -40.953208 73.517242 28.857051 0.000000 0.000000 0.000000 -0.346127 3.287451 27.549475 -19.594886 -30.151113 -5.326426 -23.805193 -11.734708 -33.626339 0.000000 0.000000 0.000000 7.125000 0.000000 0.000000 4.749558 -5.923182 5.231586
-20.178586 15.816022 -1.026490 -533.450866 -36.471536 538.970496 0.000000 0.000000 0.000000 -10.533563 -1.898270 -23.243307 4.643296 12.970518 39.258012 0.837047 -10.541130 -16.844963 3.351956 11.243985 33.107183 0.000000 0.000000 0.000000 17.309334 11.822327 7.188563 -2.545439 -9.918519 28.714502 0.103292 14.670092 -9.080101 -1.038021 -6.473294 18.166355 -2.652609 -2.062973 -0.824158 -0.896372 -2.721495 0.611621 0.514202 -1.383368 1.168144 0.194664 -2.392368 -1.824037 1.265532 -4.016382 -15.706729 0.573943 -2.423477 -4.876328 0.000000 0.000000 0.000000 8.088238 -9.562085 -7.621385 11.279845 -18.715882 1.864768 15.388273 16.022830 -45.557346 0.000000 0.000000 0.000000 -7.125000 0.000000 0.000000 -40.286125 73.225456 28.112064 0.000000 0.000000 0.000000 0.005197 2.866357 27.281659 -19.430110 -29.949550 -5.243894 -23.825677 -11.487293 -33.752233 0.000000 0.000000 0.000000 7.125000 0.000000 0.000000 4.759902 -6.056506 5.252896
-20.249815 15.823795 -1.013869 -534.098456 -36.456657 539.513915 0.000000 0.000000 0.000000 -11.325602 -2.137695 -23.148134 4.626170 12.950012 39.181612 0.842063 -10.625055 -16.906823 3.730342 11.791970 35.000890 0.000000 0.000000 0.000000 16.536028 11.641549 6.055124 -2.859697 -10.462692 30.490280 0.144462 14.460811 -8.392304 -1.249196 -7.085884 19.970146 -3.300328 -2.210350 -0.701603 -1.047710 -2.921522 0.534558 0.722510 -1.487933 1.051011 0.402258 -2.275968 -1.891104 1.220223 -3.874718 -15.780709 0.517813 -2.369888 -4.897129 0.000000 0.000000 0.000000 8.284291 -9.681645 -7.382500 11.234398 -18.646630 1.850134 14.865735 15.900444 -45.577523 0.000000 0.000000 0.000000 -7.125000 0.000000 0.000000 -40.860573 73.051038 28.399149 0.000000 0.000000 0.000000 0.151668 2.784050 27.465221 -19.233775 -29.708032 -5.146214 -23.969785 -11.540386 -33.849708 0.000000 0.000000 0.000000 7.125000 0.000000 0.000000 4.697580 -6.189964 5.193370
-20.334605 15.811627 -1.013933 -534.566896 -35.846337 539.514326 0.000000 0.000000 0.000000 -12.061825 -1.641226 -22.541798 4.602150 12.921273 39.074439 0.893859 -10.430806 -17.317831 3.664562 11.699046 34.676881 0.000000 0.000000 0.000000 15.946009 11.560956 5.364833 -3.172236 -10.967630 32.172093 0.175686 14.409940 -7.936915 -1.206501 -6.968462 19.622034 -3.694849 -2.106006 -0.538641 -1.189965 -2.785945 0.703674 0.801461 -1.428277 1.140002 0.603417 -2.257887 -2.287902 1.079107 -3.887838 -15.702767 0.426034 -2.389210 -4.797204 0.000000 0.000000 0.000000 8.570889 -10.028850 -7.509910 11.115137 -18.464436 1.812236 17.005278 17.191947 -45.510583 0.000000 0.000000 0.000000 -7.125000 0.000000 0.000000 -38.477241 73.785429 27.187885 0.000000 0.000000 0.000000 0.367077 2.589766 27.400858 -19.075002 -29.511723 -5.067694 -24.112608 -11.424175 -33.968107 0.000000 0.000000 0.000000 7.125000 0.000000 0.000000 4.639695 -6.344647 5.140089
-20.410681 15.808026 -1.003400 -534.767840 -35.614924 539.608033 0.000000 0.000000 0.000000 -12.535972 -1.483514 -22.320810 4.605035 12.924700 39.087226 0.952262 -10.285404 -17.789069 3.505521 11.471199 33.886508 0.000000 0.000000 0.000000 15.599356 11.383898 4.367679 -3.470731 -11.419404 33.709277 0.223512 14.053324 -6.936827 -1.564811 -7.887735 22.376811 -3.862728 -2.123975 -0.347661 -1.268583 -2.819859 0.731071 0.820845 -1.446955 1.066863 0.832403 -2.178835 -2.664397 0.896478 -3.809000 -15.520856 0.310969 -2.357201 -4.664435 0.000000 0.000000 0.000000 8.791812 -10.182586 -8.260312 11.034646 -18.341381 1.786783 18.564793 18.302169 -45.948843 0.000000 0.000000 0.000000 -7.125000 0.000000 0.000000 -37.979061 74.674945 27.491006 0.000000 0.000000 0.000000 0.667489 2.423464 27.071243 -18.874014 -29.261723 -4.969197 -24.046182 -10.810409 -33.861526 0.000000 0.000000 0.000000 7.125000 0.000000 0.000000 4.657564 -6.220234 5.151034
-20.500434 15.811084 -0.992049 -533.923633 -35.023751 539.109503 0.000000 0.000000 0.000000 -12.046917 -1.111327 -22.114239 4.620449 12.943245 39.156353 0.998756 -10.363994 -18.193562 3.681205 11.723285 34.760440 0.000000 0.000000 0.000000 16.172926 11.460529 3.438811 -3.787918 -11.871951 35.281513 0.230639 13.558626 -6.345985 -1.707988 -8.229379 23.412981 -2.974031 -1.997352 -0.267695 -1.105166 -2.655762 0.677915 0.501465 -1.353120 0.927205 0.813137 -2.108094 -2.540060 0.806146 -3.720019 -15.560088 0.284078 -2.306933 -4.704930 0.000000 0.000000 0.000000 8.682368 -9.912230 -7.918504 11.236353 -18.649544 1.850874 17.602522 18.572933 -46.611444 0.000000 0.000000 0.000000 -7.125000 0.000000 0.000000 -40.840838 74.762586 29.782903 0.000000 0.000000 0.000000 0.695050 2.560202 26.978609 -18.793533 -29.161283 -4.929801 -24.062097 -10.881566 -33.948611 0.000000 0.000000 0.000000 7.125000 0.000000 0.000000 4.663997 -6.312764 5.164845
-20.582546 15.814854 -0.985224 -534.142446 -34.591232 539.136813 0.000000 0.000000 0.000000 -12.524490 -1.049519 -21.710799 4.617835 12.940062 39.144512 1.064019 -10.111493 -18.691107 3.767240 11.843993 35.182479 0.000000 0.000000 0.000000 15.866741 11.307677 2.468325 -4.160579 -12.369067 37.053329 0.186364 12.809619 -6.309655 -1.552595 -7.863117 22.299719 -3.123402 -1.928451 -0.139738 -1.114950 -2.569243 0.694374 0.580390 -1.311002 0.875683 0.625587 -2.022737 -2.806655 0.829483 -3.596110 -15.318101 0.311034 -2.232630 -4.558099 0.000000 0.000000 0.000000 8.569079 -9.820414 -7.569775 11.265779 -18.694205 1.860470 17.382317 18.871779 -46.453089 0.000000 0.000000 0.000000 -7.125000 0.000000 0.000000 -40.627585 74.572032 29.466289 0.000000 0.000000 0.000000 0.414886 2.764634 26.899782 -19.014247 -29.436342 -5.037855 -23.709469 -10.848050 -34.132502 0.000000 0.000000 0.000000 7.125000 0.000000 0.000000 4.889392 -6.416634 5.424074
